<?xml version="1.0" encoding="utf-8"?>
<!-- Generator: Adobe Illustrator 19.2.1, SVG Export Plug-In . SVG Version: 6.00 Build 0)  -->
<svg version="1.1" id="Layer_1" xmlns="http://www.w3.org/2000/svg" xmlns:xlink="http://www.w3.org/1999/xlink" x="0px" y="0px"
	 viewBox="0 0 38 38" style="enable-background:new 0 0 38 38;" xml:space="preserve">
<style type="text/css">
	.st0{fill:none;stroke:#FC0000;stroke-width:0.71;stroke-linecap:round;stroke-linejoin:round;}
</style>
<title>LDR Glass</title>
<polyline class="st0" points="32.5,19 32.5,18.4 32.4,17.8 32.4,17.2 32.3,16.6 32.1,16.1 32,15.5 31.8,14.9 31.6,14.3 31.4,13.8 
	31.2,13.2 30.9,12.7 30.6,12.2 30.3,11.7 30,11.2 29.6,10.7 29.2,10.3 28.8,9.8 28.4,9.4 28,9 27.5,8.6 27.1,8.2 26.6,7.9 26.1,7.6 
	25.6,7.2 25,7 24.5,6.7 24,6.5 23.4,6.3 22.8,6.1 22.3,5.9 21.7,5.8 21.1,5.7 20.5,5.6 19.9,5.6 19.3,5.5 18.7,5.5 18.1,5.6 
	17.5,5.6 16.9,5.7 16.3,5.8 15.8,5.9 15.2,6.1 14.6,6.3 14.1,6.5 13.5,6.7 13,7 12.5,7.2 11.9,7.6 11.4,7.9 11,8.2 10.5,8.6 10,9 
	9.6,9.4 9.2,9.8 8.8,10.3 8.4,10.7 8,11.2 7.7,11.7 7.4,12.2 7.1,12.7 6.8,13.2 6.6,13.8 6.4,14.3 6.2,14.9 6,15.5 5.9,16.1 
	5.8,16.6 5.7,17.2 5.6,17.8 5.6,18.4 5.5,19 5.6,19.6 5.6,20.2 5.7,20.8 5.8,21.4 5.9,22 6,22.5 6.2,23.1 6.4,23.7 6.6,24.2 
	6.8,24.8 7.1,25.3 7.4,25.8 7.7,26.3 8,26.8 8.4,27.3 8.8,27.8 9.2,28.2 9.6,28.6 10,29 10.5,29.4 11,29.8 11.4,30.1 11.9,30.5 
	12.5,30.8 13,31 13.5,31.3 14.1,31.5 14.6,31.7 15.2,31.9 15.8,32.1 16.3,32.2 16.9,32.3 17.5,32.4 18.1,32.4 18.7,32.5 19.3,32.5 
	19.9,32.4 20.5,32.4 21.1,32.3 21.7,32.2 22.3,32.1 22.8,31.9 23.4,31.7 24,31.5 24.5,31.3 25,31 25.6,30.8 26.1,30.5 26.6,30.1 
	27.1,29.8 27.5,29.4 28,29 28.4,28.6 28.8,28.2 29.2,27.8 29.6,27.3 30,26.8 30.3,26.3 30.6,25.8 30.9,25.3 31.2,24.8 31.4,24.2 
	31.6,23.7 31.8,23.1 32,22.5 32.1,22 32.3,21.4 32.4,20.8 32.4,20.2 32.5,19.6 32.5,19 "/>
</svg>
