<?xml version="1.0" encoding="utf-8"?>
<!-- Generator: Adobe Illustrator 19.2.1, SVG Export Plug-In . SVG Version: 6.00 Build 0)  -->
<svg version="1.1" id="Layer_1" xmlns="http://www.w3.org/2000/svg" xmlns:xlink="http://www.w3.org/1999/xlink" x="0px" y="0px"
	 viewBox="0 0 286.4 154" style="enable-background:new 0 0 286.4 154;" xml:space="preserve">
<style type="text/css">
	.st0{fill:none;stroke:#FC0000;stroke-width:0.71;stroke-linecap:round;stroke-linejoin:round;}
</style>
<title>Lid Glass</title>
<polyline class="st0" points="10.9,143.6 10.9,144.4 11.2,145.3 11.6,146 12.1,146.7 12.8,147.2 13.6,147.6 14.4,147.9 15.2,148 "/>
<line class="st0" x1="10.9" y1="10.4" x2="10.9" y2="143.6"/>
<polyline class="st0" points="15.2,6 14.4,6 13.6,6.3 12.8,6.7 12.1,7.2 11.6,7.9 11.2,8.7 10.9,9.5 10.9,10.4 "/>
<line class="st0" x1="271.1" y1="6" x2="15.2" y2="6"/>
<polyline class="st0" points="275.5,10.4 275.4,9.5 275.1,8.7 274.7,7.9 274.2,7.2 273.5,6.7 272.8,6.3 271.9,6 271.1,6 "/>
<line class="st0" x1="275.5" y1="143.6" x2="275.5" y2="10.4"/>
<polyline class="st0" points="271.1,148 271.9,147.9 272.8,147.6 273.5,147.2 274.2,146.7 274.7,146 275.1,145.3 275.4,144.4 
	275.5,143.6 "/>
<line class="st0" x1="15.2" y1="148" x2="271.1" y2="148"/>
</svg>
