<?xml version="1.0" encoding="utf-8"?>
<!-- Generator: Adobe Illustrator 19.2.1, SVG Export Plug-In . SVG Version: 6.00 Build 0)  -->
<svg version="1.1" id="Layer_1" xmlns="http://www.w3.org/2000/svg" xmlns:xlink="http://www.w3.org/1999/xlink" x="0px" y="0px"
	 viewBox="0 0 314.9 169.4" style="enable-background:new 0 0 314.9 169.4;" xml:space="preserve">
<style type="text/css">
	.st0{fill:none;stroke:#000000;stroke-width:0.71;stroke-linecap:round;stroke-linejoin:round;}
	.st1{fill:#FFFFFF;}
	.st2{fill:none;stroke:#FFFFFF;stroke-width:0.71;stroke-linecap:round;stroke-linejoin:round;}
</style>
<title>Lid Glass UV printing</title>
<polygon points="289.7,18.1 289.7,151.3 289.6,152.1 289.3,153 288.9,153.7 288.4,154.4 287.7,154.9 287,155.3 286.1,155.6 
	285.3,155.7 29.4,155.7 28.6,155.6 27.8,155.3 27,154.9 26.3,154.4 25.8,153.7 25.4,153 25.1,152.1 25.1,151.3 25.1,18.1 25.1,17.2 
	25.4,16.4 25.8,15.6 26.3,14.9 27,14.4 27.8,14 28.6,13.7 29.4,13.7 285.3,13.7 286.1,13.7 287,14 287.7,14.4 288.4,14.9 
	288.9,15.6 289.3,16.4 289.6,17.2 "/>
<polyline class="st0" points="25.1,151.3 25.1,152.1 25.4,153 25.8,153.7 26.3,154.4 27,154.9 27.8,155.3 28.6,155.6 29.4,155.7 "/>
<line class="st0" x1="25.1" y1="18.1" x2="25.1" y2="151.3"/>
<polyline class="st0" points="29.4,13.7 28.6,13.7 27.8,14 27,14.4 26.3,14.9 25.8,15.6 25.4,16.4 25.1,17.2 25.1,18.1 "/>
<line class="st0" x1="285.3" y1="13.7" x2="29.4" y2="13.7"/>
<polyline class="st0" points="289.7,18.1 289.6,17.2 289.3,16.4 288.9,15.6 288.4,14.9 287.7,14.4 287,14 286.1,13.7 285.3,13.7 "/>
<line class="st0" x1="289.7" y1="151.3" x2="289.7" y2="18.1"/>
<polyline class="st0" points="285.3,155.7 286.1,155.6 287,155.3 287.7,154.9 288.4,154.4 288.9,153.7 289.3,153 289.6,152.1 
	289.7,151.3 "/>
<line class="st0" x1="29.4" y1="155.7" x2="285.3" y2="155.7"/>
<polygon class="st1" points="239.2,76.4 239.2,109.9 235.2,113.9 58.1,113.9 54.1,109.9 54.1,76.4 58.1,72.5 235.2,72.5 "/>
<polygon class="st1" points="239.2,76.4 235.2,72.5 236,72.6 236.7,72.8 237.4,73.1 238,73.6 238.5,74.2 238.9,74.9 239.1,75.7 "/>
<polygon class="st1" points="235.2,113.9 239.2,109.9 239.1,110.7 238.9,111.4 238.5,112.1 238,112.7 237.4,113.2 236.7,113.6 
	236,113.8 "/>
<polygon class="st1" points="58.1,72.5 54.1,76.4 54.2,75.7 54.4,74.9 54.8,74.2 55.3,73.6 55.9,73.1 56.5,72.8 57.3,72.6 "/>
<polygon class="st1" points="54.1,109.9 58.1,113.9 57.3,113.8 56.5,113.6 55.9,113.2 55.3,112.7 54.8,112.1 54.4,111.4 54.2,110.7 
	"/>
<line class="st2" x1="235.2" y1="72.5" x2="58.1" y2="72.5"/>
<polyline class="st2" points="239.2,76.4 239.1,75.7 238.9,74.9 238.5,74.2 238,73.6 237.4,73.1 236.7,72.8 236,72.6 235.2,72.5 "/>
<line class="st2" x1="239.2" y1="109.9" x2="239.2" y2="76.4"/>
<polyline class="st2" points="235.2,113.9 236,113.8 236.7,113.6 237.4,113.2 238,112.7 238.5,112.1 238.9,111.4 239.1,110.7 
	239.2,109.9 "/>
<line class="st2" x1="58.1" y1="113.9" x2="235.2" y2="113.9"/>
<polyline class="st2" points="54.1,109.9 54.2,110.7 54.4,111.4 54.8,112.1 55.3,112.7 55.9,113.2 56.5,113.6 57.3,113.8 
	58.1,113.9 "/>
<line class="st2" x1="54.1" y1="76.4" x2="54.1" y2="109.9"/>
<polyline class="st2" points="58.1,72.5 57.3,72.6 56.5,72.8 55.9,73.1 55.3,73.6 54.8,74.2 54.4,74.9 54.2,75.7 54.1,76.4 "/>
</svg>
