<svg id="Layer_1" data-name="Layer 1" xmlns="http://www.w3.org/2000/svg" viewBox="0 0 244.71 126.01"><defs><style>.cls-1{fill:none;stroke:#000;stroke-linecap:round;stroke-linejoin:round;stroke-width:0.71px;}</style></defs><title>Lid Glass (Laser Cutting)</title><path class="cls-1" d="M30.3,156.4l0.1,0.9,0.3,0.9,0.4,0.8,0.6,0.6,0.7,0.6,0.7,0.4,0.9,0.3,0.9,0.1M30.3,40.2V156.4M34.9,35.7l-0.9.1-0.9.2-0.7.4-0.7.6-0.6.7-0.4.8-0.3.8-0.1.9m239.4-4.5H34.9m239.4,4.5-0.1-.9-0.3-.8-0.4-.8L273,37l-0.7-.6-0.8-.4-0.9-.2-0.9-.1m4.6,120.7V40.2M269.7,161l0.9-.1,0.9-.3,0.8-.4,0.7-.6,0.5-.6,0.4-.8,0.3-.9,0.1-.9M34.9,161H269.7" transform="translate(-29.95 -35.35)"/></svg>