<svg id="Layer_1" data-name="Layer 1" xmlns="http://www.w3.org/2000/svg" viewBox="0 0 244.71 126.01"><defs><style>.cls-1{fill:none;stroke:#000;stroke-linecap:round;stroke-linejoin:round;stroke-width:0.71px;}</style></defs><title>Lid Glass (UV Printing)</title><path d="M274.3,40.2V156.4l-0.1.9-0.3.9-0.4.8-0.5.6-0.7.6-0.8.4-0.9.3-0.9.1H34.9l-0.9-.1-0.9-.3-0.7-.4-0.7-.6-0.6-.6-0.4-.8-0.3-.9-0.1-.9V40.2l0.1-.9,0.3-.8,0.4-.8,0.6-.7,0.7-.6,0.7-.4,0.9-.2,0.9-.1H269.7l0.9,0.1,0.9,0.2,0.8,0.4L273,37l0.5,0.7,0.4,0.8,0.3,0.8Zm-31.4,75.3V81.2l-0.1-.5-0.2-.4-0.3-.3-0.4-.3-0.4-.2-0.4-.1-0.4-.1H63.5l-0.4.1-0.5.1-0.4.2-0.3.3-0.3.3-0.2.4-0.1.5-0.1.4v33.5l0.1,0.4,0.1,0.4,0.2,0.4,0.3,0.4,0.3,0.2,0.4,0.2,0.5,0.2h178l0.4-.2,0.4-.2,0.4-.2,0.3-.4,0.2-.4Z" transform="translate(-29.95 -35.35)"/><polyline class="cls-1" points="0.35 121.05 0.45 121.95 0.75 122.85 1.15 123.65 1.75 124.25 2.45 124.85 3.15 125.25 4.05 125.55 4.95 125.65"/><line class="cls-1" x1="0.35" y1="4.85" x2="0.35" y2="121.05"/><polyline class="cls-1" points="4.95 0.35 4.05 0.45 3.15 0.65 2.45 1.05 1.75 1.65 1.15 2.35 0.75 3.15 0.45 3.95 0.35 4.85"/><line class="cls-1" x1="239.75" y1="0.35" x2="4.95" y2="0.35"/><polyline class="cls-1" points="244.35 4.85 244.25 3.95 243.95 3.15 243.55 2.35 243.05 1.65 242.35 1.05 241.55 0.65 240.65 0.45 239.75 0.35"/><line class="cls-1" x1="244.35" y1="121.05" x2="244.35" y2="4.85"/><polyline class="cls-1" points="239.75 125.65 240.65 125.55 241.55 125.25 242.35 124.85 243.05 124.25 243.55 123.65 243.95 122.85 244.25 121.95 244.35 121.05"/><line class="cls-1" x1="4.95" y1="125.65" x2="239.75" y2="125.65"/><line class="cls-1" x1="212.95" y1="79.75" x2="212.95" y2="46.25"/><polyline class="cls-1" points="210.75 81.95 211.15 81.95 211.55 81.75 211.95 81.55 212.35 81.35 212.65 80.95 212.85 80.55 212.95 80.15 212.95 79.75"/><line class="cls-1" x1="33.55" y1="81.95" x2="210.75" y2="81.95"/><polyline class="cls-1" points="31.25 79.75 31.35 80.15 31.45 80.55 31.65 80.95 31.95 81.35 32.25 81.55 32.65 81.75 33.15 81.95 33.55 81.95"/><line class="cls-1" x1="31.25" y1="46.25" x2="31.25" y2="79.75"/><polyline class="cls-1" points="33.55 43.95 33.15 44.05 32.65 44.15 32.25 44.35 31.95 44.65 31.65 44.95 31.45 45.35 31.35 45.85 31.25 46.25"/><line class="cls-1" x1="210.75" y1="43.95" x2="33.55" y2="43.95"/><polyline class="cls-1" points="212.95 46.25 212.95 45.85 212.85 45.35 212.65 44.95 212.35 44.65 211.95 44.35 211.55 44.15 211.15 44.05 210.75 43.95"/></svg>